<svg width="124" height="115" viewBox="0 0 124 115" fill="none" xmlns="http://www.w3.org/2000/svg">
<path d="M124 53.5842C124 83.178 83.4611 97.276 41.6146 115C80.4098 70.8961 5.25438 103.047 0.20393 53.5842C-2.80381 24.1275 27.9166 0 62.102 0C96.2873 0 124 23.9905 124 53.5842Z" fill="#4A3526"/>
<path d="M20 57.5C19.4933 57.5 19.1 57.36 18.82 57.08C18.5533 56.8 18.42 56.4133 18.42 55.92V44.94C18.42 44.42 18.5533 44.0267 18.82 43.76C19.0867 43.4933 19.4733 43.36 19.98 43.36C20.4733 43.36 20.8533 43.4933 21.12 43.76C21.3867 44.0267 21.52 44.42 21.52 44.94V54.88H26.88C27.3067 54.88 27.6333 54.9933 27.86 55.22C28.1 55.4467 28.22 55.7667 28.22 56.18C28.22 56.6067 28.1 56.9333 27.86 57.16C27.6333 57.3867 27.3067 57.5 26.88 57.5H20ZM31.1448 57.66C30.6515 57.66 30.2715 57.52 30.0048 57.24C29.7515 56.9467 29.6248 56.54 29.6248 56.02V49.18C29.6248 48.6467 29.7515 48.24 30.0048 47.96C30.2715 47.6667 30.6515 47.52 31.1448 47.52C31.6248 47.52 31.9915 47.6667 32.2448 47.96C32.5115 48.24 32.6448 48.6467 32.6448 49.18V56.02C32.6448 56.54 32.5182 56.9467 32.2648 57.24C32.0115 57.52 31.6382 57.66 31.1448 57.66ZM31.1448 45.88C30.5848 45.88 30.1515 45.7533 29.8448 45.5C29.5515 45.2333 29.4048 44.86 29.4048 44.38C29.4048 43.8867 29.5515 43.5133 29.8448 43.26C30.1515 42.9933 30.5848 42.86 31.1448 42.86C31.7048 42.86 32.1315 42.9933 32.4248 43.26C32.7182 43.5133 32.8648 43.8867 32.8648 44.38C32.8648 44.86 32.7182 45.2333 32.4248 45.5C32.1315 45.7533 31.7048 45.88 31.1448 45.88ZM39.1364 57.68C38.7497 57.68 38.4097 57.58 38.1164 57.38C37.8231 57.1667 37.5897 56.8533 37.4164 56.44L34.3964 49.48C34.2497 49.1333 34.1964 48.8133 34.2364 48.52C34.2764 48.2133 34.4164 47.9733 34.6564 47.8C34.9097 47.6133 35.2564 47.52 35.6964 47.52C36.0564 47.52 36.3497 47.6067 36.5764 47.78C36.8031 47.94 37.0031 48.2533 37.1764 48.72L39.5364 54.72H38.8964L41.3564 48.7C41.5431 48.2467 41.7497 47.94 41.9764 47.78C42.2031 47.6067 42.5164 47.52 42.9164 47.52C43.2631 47.52 43.5364 47.6133 43.7364 47.8C43.9497 47.9733 44.0764 48.2067 44.1164 48.5C44.1697 48.7933 44.1164 49.1133 43.9564 49.46L40.8764 56.44C40.7031 56.8667 40.4697 57.18 40.1764 57.38C39.8964 57.58 39.5497 57.68 39.1364 57.68ZM50.5256 57.72C49.3656 57.72 48.3656 57.5133 47.5256 57.1C46.699 56.6733 46.059 56.08 45.6056 55.32C45.1656 54.5467 44.9456 53.64 44.9456 52.6C44.9456 51.5867 45.159 50.7 45.5856 49.94C46.0123 49.1667 46.6056 48.5667 47.3656 48.14C48.139 47.7 49.0123 47.48 49.9856 47.48C50.6923 47.48 51.3323 47.6 51.9056 47.84C52.479 48.0667 52.9723 48.4 53.3856 48.84C53.799 49.2667 54.1123 49.7933 54.3256 50.42C54.539 51.0333 54.6456 51.72 54.6456 52.48C54.6456 52.7333 54.5656 52.9267 54.4056 53.06C54.2456 53.18 54.0123 53.24 53.7056 53.24H47.4256V51.68H52.4656L52.1456 51.96C52.1456 51.4133 52.0656 50.96 51.9056 50.6C51.7456 50.2267 51.5123 49.9467 51.2056 49.76C50.9123 49.5733 50.5456 49.48 50.1056 49.48C49.6123 49.48 49.1923 49.5933 48.8456 49.82C48.499 50.0467 48.2323 50.3733 48.0456 50.8C47.859 51.2267 47.7656 51.74 47.7656 52.34V52.5C47.7656 53.5133 47.999 54.26 48.4656 54.74C48.9456 55.22 49.6523 55.46 50.5856 55.46C50.9056 55.46 51.2723 55.42 51.6856 55.34C52.099 55.26 52.4856 55.1333 52.8456 54.96C53.1523 54.8133 53.4256 54.7667 53.6656 54.82C53.9056 54.86 54.0923 54.9667 54.2256 55.14C54.359 55.3133 54.4323 55.5133 54.4456 55.74C54.4723 55.9667 54.4256 56.1933 54.3056 56.42C54.1856 56.6333 53.9856 56.8133 53.7056 56.96C53.2523 57.2133 52.739 57.4 52.1656 57.52C51.6056 57.6533 51.059 57.72 50.5256 57.72ZM69.0881 57.72C67.5681 57.72 66.2681 57.42 65.1881 56.82C64.1081 56.22 63.2748 55.38 62.6881 54.3C62.1148 53.2067 61.8281 51.92 61.8281 50.44C61.8281 49.3333 61.9881 48.34 62.3081 47.46C62.6415 46.5667 63.1215 45.8067 63.7481 45.18C64.3748 44.54 65.1348 44.0467 66.0281 43.7C66.9348 43.3533 67.9548 43.18 69.0881 43.18C69.7548 43.18 70.4281 43.2667 71.1081 43.44C71.8015 43.6 72.4015 43.8333 72.9081 44.14C73.2415 44.3267 73.4681 44.56 73.5881 44.84C73.7081 45.12 73.7415 45.4 73.6881 45.68C73.6481 45.96 73.5348 46.2 73.3481 46.4C73.1748 46.6 72.9548 46.7267 72.6881 46.78C72.4215 46.8333 72.1215 46.7733 71.7881 46.6C71.3881 46.36 70.9681 46.1867 70.5281 46.08C70.0881 45.9733 69.6415 45.92 69.1881 45.92C68.2948 45.92 67.5415 46.1 66.9281 46.46C66.3281 46.8067 65.8748 47.3133 65.5681 47.98C65.2615 48.6467 65.1081 49.4667 65.1081 50.44C65.1081 51.4 65.2615 52.22 65.5681 52.9C65.8748 53.58 66.3281 54.1 66.9281 54.46C67.5415 54.8067 68.2948 54.98 69.1881 54.98C69.6148 54.98 70.0481 54.9267 70.4881 54.82C70.9415 54.7133 71.3748 54.5467 71.7881 54.32C72.1348 54.1467 72.4415 54.0867 72.7081 54.14C72.9881 54.18 73.2148 54.3 73.3881 54.5C73.5748 54.6867 73.6881 54.9133 73.7281 55.18C73.7815 55.4467 73.7548 55.7133 73.6481 55.98C73.5415 56.2467 73.3415 56.4733 73.0481 56.66C72.5548 56.9933 71.9481 57.2533 71.2281 57.44C70.5081 57.6267 69.7948 57.72 69.0881 57.72ZM77.18 57.68C76.6867 57.68 76.3067 57.5467 76.04 57.28C75.7867 57.0133 75.66 56.6333 75.66 56.14V44.76C75.66 44.2533 75.7867 43.8733 76.04 43.62C76.3067 43.3533 76.6867 43.22 77.18 43.22C77.66 43.22 78.0267 43.3533 78.28 43.62C78.5467 43.8733 78.68 44.2533 78.68 44.76V49.52H78.4C78.7067 48.8667 79.16 48.3667 79.76 48.02C80.3733 47.66 81.0667 47.48 81.84 47.48C82.6267 47.48 83.2733 47.6333 83.78 47.94C84.2867 48.2333 84.6667 48.6867 84.92 49.3C85.1733 49.9 85.3 50.6667 85.3 51.6V56.14C85.3 56.6333 85.1667 57.0133 84.9 57.28C84.6467 57.5467 84.2733 57.68 83.78 57.68C83.3 57.68 82.9267 57.5467 82.66 57.28C82.4067 57.0133 82.28 56.6333 82.28 56.14V51.74C82.28 51.06 82.1533 50.5733 81.9 50.28C81.66 49.9733 81.2867 49.82 80.78 49.82C80.14 49.82 79.6267 50.02 79.24 50.42C78.8667 50.82 78.68 51.3533 78.68 52.02V56.14C78.68 57.1667 78.18 57.68 77.18 57.68ZM90.8745 57.72C90.1545 57.72 89.5079 57.58 88.9345 57.3C88.3612 57.02 87.9145 56.64 87.5945 56.16C87.2745 55.68 87.1145 55.14 87.1145 54.54C87.1145 53.82 87.3012 53.2533 87.6745 52.84C88.0479 52.4133 88.6545 52.1133 89.4945 51.94C90.3345 51.7533 91.4479 51.66 92.8345 51.66H93.8945V53.22H92.8545C92.1745 53.22 91.6212 53.26 91.1945 53.34C90.7812 53.4067 90.4812 53.5267 90.2945 53.7C90.1212 53.8733 90.0345 54.1133 90.0345 54.42C90.0345 54.7933 90.1612 55.1 90.4145 55.34C90.6812 55.58 91.0612 55.7 91.5545 55.7C91.9412 55.7 92.2812 55.6133 92.5745 55.44C92.8812 55.2533 93.1212 55.0067 93.2945 54.7C93.4679 54.38 93.5545 54.02 93.5545 53.62V51.32C93.5545 50.7333 93.4212 50.32 93.1545 50.08C92.8879 49.8267 92.4345 49.7 91.7945 49.7C91.4345 49.7 91.0412 49.7467 90.6145 49.84C90.2012 49.92 89.7412 50.06 89.2345 50.26C88.9412 50.3933 88.6812 50.4267 88.4545 50.36C88.2279 50.28 88.0545 50.1467 87.9345 49.96C87.8145 49.76 87.7545 49.5467 87.7545 49.32C87.7545 49.08 87.8212 48.8533 87.9545 48.64C88.0879 48.4133 88.3079 48.2467 88.6145 48.14C89.2412 47.8867 89.8279 47.7133 90.3745 47.62C90.9345 47.5267 91.4479 47.48 91.9145 47.48C92.9412 47.48 93.7812 47.6333 94.4345 47.94C95.1012 48.2333 95.6012 48.6933 95.9345 49.32C96.2679 49.9333 96.4345 50.7267 96.4345 51.7V56.14C96.4345 56.6333 96.3145 57.0133 96.0745 57.28C95.8345 57.5467 95.4879 57.68 95.0345 57.68C94.5812 57.68 94.2279 57.5467 93.9745 57.28C93.7345 57.0133 93.6145 56.6333 93.6145 56.14V55.4L93.7545 55.52C93.6745 55.9733 93.5012 56.3667 93.2345 56.7C92.9812 57.02 92.6545 57.2733 92.2545 57.46C91.8545 57.6333 91.3945 57.72 90.8745 57.72ZM103.507 57.72C102.587 57.72 101.814 57.5667 101.187 57.26C100.574 56.9533 100.114 56.5067 99.8073 55.92C99.514 55.3333 99.3673 54.5933 99.3673 53.7V49.94H98.5273C98.154 49.94 97.8607 49.84 97.6473 49.64C97.4473 49.44 97.3473 49.1667 97.3473 48.82C97.3473 48.4467 97.4473 48.1667 97.6473 47.98C97.8607 47.78 98.154 47.68 98.5273 47.68H99.3673V46.16C99.3673 45.6533 99.5007 45.2733 99.7673 45.02C100.034 44.7533 100.407 44.62 100.887 44.62C101.381 44.62 101.754 44.7533 102.007 45.02C102.261 45.2733 102.387 45.6533 102.387 46.16V47.68H104.287C104.661 47.68 104.947 47.78 105.147 47.98C105.347 48.1667 105.447 48.4467 105.447 48.82C105.447 49.1667 105.347 49.44 105.147 49.64C104.947 49.84 104.661 49.94 104.287 49.94H102.387V53.58C102.387 54.14 102.514 54.56 102.767 54.84C103.034 55.12 103.454 55.26 104.027 55.26C104.227 55.26 104.414 55.24 104.587 55.2C104.761 55.16 104.921 55.1333 105.067 55.12C105.254 55.1067 105.407 55.1667 105.527 55.3C105.647 55.42 105.707 55.6933 105.707 56.12C105.707 56.44 105.654 56.72 105.547 56.96C105.441 57.2 105.254 57.3733 104.987 57.48C104.814 57.5467 104.574 57.6 104.267 57.64C103.974 57.6933 103.721 57.72 103.507 57.72Z" fill="#FBFF09"/>
</svg>
