<?xml version="1.0" encoding="UTF-8"?>
<svg id="Layer_1" xmlns="http://www.w3.org/2000/svg" version="1.1" viewBox="0 0 543.97 183.89">
  <!-- Generator: Adobe Illustrator 29.5.1, SVG Export Plug-In . SVG Version: 2.1.0 Build 141)  -->
  <defs>
    <style>
      .st0 {
        fill: #7f3f98;
      }

      .st1 {
        fill: #ed1c24;
      }

      .st2 {
        fill: #f8c0d9;
      }

      .st3 {
        fill: #3c2415;
      }

      .st4 {
        fill: #ffde17;
      }

      .st5 {
        fill: #262262;
      }

      .st6 {
        fill: #2e3192;
      }

      .st7 {
        fill: #00a14b;
      }

      .st8 {
        fill: #27aae1;
      }

      .st9 {
        fill: #f8c1d9;
      }

      .st10 {
        fill: #f26522;
      }
    </style>
  </defs>
  <g id="KWphKT">
    <path class="st3" d="M92.24,18.93c42.97-2.77,77.4,35.6,68.64,76.6-4.92,23.16-24.75,52.47-44.43,66.26-14.37,10.12-24.21,10.72-38.82.52-20.14-13.87-39.82-42.95-44.97-66.48C24.37,58.13,52.81,21.48,92.24,18.93ZM93.39,37.22c-34.28,2.32-54.42,38.83-37.59,68.21,16.99,29.76,60.19,31.26,79.79,3.22,21.98-31.41-3.38-74.05-42.2-71.43Z"/>
    <path class="st2" d="M93.39,80.62c9.84-1.12,19.29,3.82,24.44,11.92s4.54,15.74-3.46,20.09c-8.07,4.35-12.99-3.97-21.06-1.42s-9.92,5.17-16.3-.15c-12.45-10.34,3.61-28.86,16.45-30.36l-.08-.07Z"/>
    <path class="st9" d="M82.94,56.26c7.61-1.65,11.84,13.49,5.53,15.44s-12.53-13.94-5.53-15.44Z"/>
    <path class="st9" d="M107.92,56.34c5.23-1.05,6.3,4.35,5.38,8.24-.92,3.9-5.53,9.67-9.53,6.45-4.3-3.52-.77-13.72,4.15-14.69Z"/>
    <path class="st9" d="M64.57,69.75c7.07-1.12,13.99,11.32,7.69,13.87-7.76,3.07-15.91-12.52-7.69-13.87Z"/>
    <path class="st9" d="M127.14,69.75c10.3-1.42,3.15,16.64-5.69,13.94-6.46-1.95-.61-13.12,5.69-13.94Z"/>
  </g>
  <path class="st8" d="M202.62,28.9c7.53,0,12.99,1.5,16.45,4.57s5.15,7.27,5.15,12.74-.69,6.22-2.15,9.07c-1.38,2.77-3.77,5.1-7.15,6.82s-7.84,2.62-13.53,2.62h-5.76v20.84h-10.38V28.9h17.37ZM201.93,37.3h-6.23v18.96h4.69c4.23,0,7.46-.75,9.76-2.25s3.46-3.97,3.46-7.42-.92-5.47-2.84-6.97-4.84-2.32-8.84-2.32Z"/>
  <path class="st8" d="M247.28,41.72c5.69,0,9.99,1.2,12.99,3.67,2.92,2.4,4.46,6.22,4.46,11.24v28.86h-7.23l-2-5.92h-.31c-1.92,2.32-3.92,4.05-6,5.1-2.15,1.05-5,1.65-8.61,1.65s-7.23-1.05-9.84-3.22-3.92-5.55-3.92-10.04,1.69-7.8,5-9.97c3.31-2.25,8.38-3.45,15.14-3.75l7.61-.22v-2.17c0-2.77-.69-4.72-2-5.85-1.38-1.2-3.23-1.72-5.69-1.72s-4.38.3-6.38.9c-2,.6-4.07,1.35-6.07,2.25l-3.23-6.97c2.15-1.12,4.61-2.02,7.46-2.7,2.77-.67,5.69-1.05,8.76-1.05l-.15-.07ZM254.58,65.18l-5.38.15c-4.54.15-7.61.9-9.38,2.25-1.77,1.35-2.61,3.15-2.61,5.4s.61,3.52,1.84,4.42c1.23.9,2.84,1.27,4.84,1.27,3,0,5.53-.82,7.53-2.47,2.08-1.65,3.07-4.12,3.07-7.42v-3.67l.08.07Z"/>
  <path class="st8" d="M308.77,85.49l-4.84-18.44c-.31-.97-.61-2.17-1-3.75-.38-1.5-.77-3.15-1.15-4.72-.38-1.65-.77-3.15-1.08-4.57-.31-1.42-.54-2.47-.77-3.15h-.31c-.15.67-.38,1.72-.77,3.15-.31,1.42-.69,2.92-1.08,4.57-.38,1.65-.77,3.22-1.15,4.72s-.69,2.77-1,3.82l-5.15,18.36h-11.22l-12.38-43.02h10.3l5.46,20.54c.38,1.42.77,3,1.08,4.72.38,1.72.69,3.37.92,5.02.31,1.57.46,2.85.54,3.9h.31c.08-.97.31-2.25.61-3.9s.61-3.22.92-4.8c.31-1.57.61-2.7.85-3.52l6.38-21.96h11.22l6.07,21.96c.23.97.54,2.17.85,3.75.38,1.5.69,3.07.92,4.57.31,1.5.46,2.77.46,3.82h.31c.08-.9.31-2.1.54-3.67.31-1.57.61-3.22,1-5.02.38-1.8.77-3.37,1.23-4.87l5.53-20.54h10.15l-12.53,43.02h-11.38.15Z"/>
  <path class="st8" d="M368.57,73.05c0,4.35-1.61,7.65-4.77,9.89s-7.69,3.37-13.61,3.37-5.76-.22-7.92-.6c-2.23-.45-4.3-1.05-6.38-1.95v-8.47c2.15.97,4.54,1.87,7.23,2.55,2.61.67,5.07,1.05,7.46,1.05s4.84-.45,6.07-1.27,1.84-1.95,1.84-3.37-.23-1.57-.77-2.25-1.46-1.42-2.84-2.17c-1.38-.82-3.54-1.8-6.46-2.92-2.84-1.12-5.15-2.25-7.07-3.3-1.84-1.12-3.31-2.4-4.23-3.97-.92-1.5-1.46-3.52-1.46-5.92,0-3.82,1.54-6.75,4.69-8.77,3.15-1.95,7.3-3,12.45-3s5.3.3,7.69.82c2.38.52,4.84,1.35,7.3,2.4l-3.23,7.35c-2.08-.82-4.07-1.57-6-2.17-1.92-.6-3.92-.9-6-.9-4.54,0-6.76,1.27-6.76,3.75s.31,1.65.85,2.32c.54.6,1.54,1.27,3,2.02s3.46,1.57,6.15,2.55c2.61.97,4.84,2.02,6.76,3.15,1.92,1.05,3.38,2.4,4.38,3.97,1,1.57,1.54,3.6,1.54,6.07l.08-.22Z"/>
  <path class="st8" d="M381.87,25.98c1.54,0,2.84.37,4,1.12s1.69,2.1,1.69,4.05-.54,3.3-1.69,4.12-2.46,1.2-4,1.2-2.92-.37-4-1.2c-1.08-.82-1.69-2.17-1.69-4.12s.54-3.3,1.69-4.05c1.08-.75,2.46-1.12,4-1.12ZM387.02,42.54v42.95h-10.22v-42.95h10.22Z"/>
  <path class="st8" d="M415.54,78.3c1.23,0,2.46-.15,3.69-.37,1.23-.22,2.31-.52,3.38-.82v7.42c-1.08.52-2.46.97-4.23,1.27-1.77.3-3.54.45-5.46.45s-4.84-.37-6.84-1.2-3.61-2.17-4.84-4.2c-1.23-2.02-1.77-4.87-1.77-8.47v-22.34h-5.92v-4.35l6.53-3.52,3.23-9.14h6.46v9.44h12.53v7.5h-12.53v22.26c0,2.02.54,3.52,1.69,4.5,1.08.97,2.54,1.5,4.15,1.5l-.08.07Z"/>
  <path class="st8" d="M434.99,25.98c1.54,0,2.84.37,4,1.12s1.69,2.1,1.69,4.05-.54,3.3-1.69,4.12-2.46,1.2-4,1.2-2.92-.37-4-1.2-1.69-2.17-1.69-4.12.54-3.3,1.69-4.05c1.08-.75,2.46-1.12,4-1.12ZM440.14,42.54v42.95h-10.22v-42.95h10.22Z"/>
  <path class="st8" d="M461.73,85.49l-16.76-42.95h10.84l8.76,24.81c.61,1.5,1.08,3.22,1.54,5.1s.69,3.37.85,4.65h.31c.15-1.35.46-2.92,1-4.72s1-3.45,1.54-5.02l8.76-24.81h10.84l-16.76,42.95h-10.92Z"/>
  <path class="st8" d="M512.08,41.72c5.92,0,10.61,1.72,13.99,5.17,3.46,3.45,5.15,8.24,5.15,14.32v5.1h-29.13c.08,3.9,1.23,6.97,3.31,9.07,2.15,2.17,5.07,3.22,8.76,3.22s5.38-.3,7.61-.82c2.31-.52,4.61-1.35,6.99-2.4v8.02c-2.15.97-4.38,1.72-6.76,2.25-2.31.45-5.15.75-8.38.75s-8.15-.82-11.45-2.4c-3.31-1.65-5.92-4.05-7.76-7.27s-2.77-7.35-2.77-12.22c0-7.35,1.84-12.97,5.53-16.79s8.61-5.77,14.76-5.77l.15-.22ZM512.08,49.14c-2.77,0-5,.82-6.69,2.55-1.69,1.72-2.69,4.27-3,7.65h18.91c0-2.92-.85-5.4-2.31-7.35s-3.84-2.92-6.92-2.92v.07Z"/>
  <path class="st1" d="M195.55,152.95h-10.22v-56.59h32.9v8.47h-22.68v16.64h21.14v8.47h-21.14v23.01Z"/>
  <path class="st10" d="M265.5,110v42.95h-8.07l-1.38-5.55h-.46c-1.38,2.25-3.38,3.82-5.84,4.87-2.46.97-5.15,1.5-7.92,1.5-4.92,0-8.76-1.27-11.61-3.75-2.77-2.47-4.15-6.45-4.15-11.99v-28.03h10.22v26.08c0,3.22.61,5.62,1.92,7.2s3.38,2.4,6.15,2.4c4.15,0,6.92-1.27,8.53-3.82s2.31-6.15,2.31-10.87v-20.99h10.3Z"/>
  <path class="st4" d="M294.09,145.76c1.23,0,2.46-.15,3.69-.37,1.23-.22,2.31-.52,3.38-.82v7.42c-1.08.52-2.46.97-4.23,1.27s-3.54.45-5.46.45-4.84-.37-6.84-1.2-3.61-2.17-4.84-4.2c-1.23-2.02-1.77-4.87-1.77-8.47v-22.34h-5.92v-4.35l6.53-3.52,3.23-9.14h6.46v9.44h12.53v7.5h-12.53v22.26c0,2.02.54,3.52,1.69,4.5,1.08.97,2.54,1.5,4.15,1.5l-.08.07Z"/>
  <path class="st7" d="M347.51,110v42.95h-8.07l-1.38-5.55h-.46c-1.38,2.25-3.38,3.82-5.84,4.87-2.46.97-5.15,1.5-7.92,1.5-4.92,0-8.76-1.27-11.61-3.75-2.77-2.47-4.15-6.45-4.15-11.99v-28.03h10.22v26.08c0,3.22.61,5.62,1.92,7.2s3.38,2.4,6.15,2.4c4.15,0,6.92-1.27,8.53-3.82s2.31-6.15,2.31-10.87v-20.99h10.3Z"/>
  <path class="st6" d="M382.02,109.18c.69,0,1.46,0,2.38.15.85.07,1.54.15,2.15.3l-.92,9.29c-.54-.07-1.23-.22-2-.3-.77-.07-1.46-.15-2-.15-2.15,0-4.23.45-6.07,1.27-1.92.9-3.46,2.17-4.61,3.97-1.15,1.8-1.77,4.12-1.77,6.9v22.26h-10.22v-42.95h7.92l1.46,7.42h.46c1.31-2.25,3.07-4.2,5.38-5.85,2.31-1.65,4.92-2.4,7.92-2.4l-.08.07Z"/>
  <path class="st5" d="M409.16,109.18c5.92,0,10.61,1.72,13.99,5.17,3.46,3.45,5.15,8.24,5.15,14.32v5.1h-29.13c.08,3.9,1.23,6.97,3.31,9.07,2.15,2.17,5.07,3.22,8.76,3.22s5.38-.3,7.61-.82c2.31-.52,4.61-1.35,6.99-2.4v8.02c-2.15.97-4.38,1.72-6.76,2.25-2.31.45-5.15.75-8.38.75s-8.15-.82-11.45-2.4c-3.31-1.65-5.92-4.05-7.76-7.27-1.84-3.22-2.77-7.35-2.77-12.22,0-7.35,1.84-12.97,5.53-16.79,3.69-3.82,8.61-5.77,14.76-5.77l.15-.22ZM409.16,116.6c-2.77,0-5,.82-6.69,2.55-1.69,1.72-2.69,4.27-3,7.65h18.91c0-2.92-.85-5.4-2.31-7.35s-3.84-2.92-6.92-2.92v.07Z"/>
  <path class="st0" d="M467.04,140.51c0,4.35-1.61,7.65-4.77,9.89-3.15,2.25-7.69,3.37-13.61,3.37s-5.76-.22-7.92-.6c-2.23-.45-4.3-1.05-6.38-1.95v-8.47c2.15.97,4.54,1.87,7.23,2.55,2.61.67,5.07,1.05,7.46,1.05s4.84-.45,6.07-1.27c1.23-.82,1.84-1.95,1.84-3.37s-.23-1.57-.77-2.25-1.46-1.42-2.84-2.17c-1.38-.82-3.54-1.8-6.46-2.92-2.84-1.12-5.15-2.25-7.07-3.3-1.84-1.12-3.31-2.4-4.23-3.97-.92-1.5-1.46-3.52-1.46-5.92,0-3.82,1.54-6.75,4.69-8.77,3.15-1.95,7.3-3,12.45-3s5.3.3,7.69.82,4.84,1.35,7.3,2.4l-3.23,7.35c-2.08-.82-4.07-1.57-6-2.17-1.92-.6-3.92-.9-6-.9-4.54,0-6.76,1.27-6.76,3.75s.31,1.65.85,2.32c.54.6,1.54,1.27,3,2.02s3.46,1.57,6.15,2.55c2.61.97,4.84,2.02,6.76,3.15,1.92,1.05,3.38,2.4,4.38,3.97s1.54,3.6,1.54,6.07l.08-.22Z"/>
</svg>